<?xml version="1.0" encoding="utf-8"?>
<svg x="0pt" y="0pt" width="200pt" height="100pt" viewBox="0 0 200 100" xmlns="http://www.w3.org/2000/svg" xmlns:xlink="http://www.w3.org/1999/xlink">
  <g id="1">
    <title>Layer 1</title>
    <defs>
      <title>Path</title>
      <g id="2">
        <defs>
          <path id="3" d="M43.203,17.4048 C60.2851,17.4048,74.133,31.4836,74.133,48.8506 C74.133,66.2176,60.2851,80.2963,43.203,80.2963 C26.1208,80.2963,12.273,66.2176,12.273,48.8506 C12.273,31.4836,26.1208,17.4048,43.203,17.4048 z"/>
        </defs>
        <use xlink:href="#3" style="fill:#60b0f4;fill-opacity:1;fill-rule:evenodd;opacity:1;stroke:none;"/>
        <use xlink:href="#3" style="fill:none;opacity:1;stroke:#60b0f4;stroke-linecap:butt;stroke-linejoin:miter;stroke-miterlimit:10;stroke-opacity:1;stroke-width:1;"/>
      </g>
    </defs>
    <use xlink:href="#2"/>
    <defs>
      <title>Path</title>
      <g id="4">
        <defs>
          <path id="5" d="M43.203,24.3147 C56.5315,24.3147,67.3365,35.2998,67.3365,48.8506 C67.3365,62.4014,56.5315,73.3865,43.203,73.3865 C29.8744,73.3865,19.0695,62.4014,19.0695,48.8506 C19.0695,35.2998,29.8744,24.3147,43.203,24.3147 z"/>
        </defs>
        <use xlink:href="#5" style="fill:#4c708e;fill-opacity:1;fill-rule:evenodd;opacity:1;stroke:none;"/>
        <use xlink:href="#5" style="fill:none;opacity:1;stroke:#4c708e;stroke-linecap:butt;stroke-linejoin:miter;stroke-miterlimit:10;stroke-opacity:1;stroke-width:1;"/>
      </g>
    </defs>
    <use xlink:href="#4"/>
    <defs>
      <title>Path</title>
      <g id="6">
        <defs>
          <path id="7" d="M43.203,33.302 C51.6494,33.302,58.4966,40.2633,58.4966,48.8506 C58.4966,57.4378,51.6494,64.3991,43.203,64.3991 C34.7566,64.3991,27.9094,57.4378,27.9094,48.8506 C27.9094,40.2633,34.7566,33.302,43.203,33.302 z"/>
        </defs>
        <use xlink:href="#7" style="fill:#e8ff00;fill-opacity:1;fill-rule:evenodd;opacity:1;stroke:none;"/>
        <use xlink:href="#7" style="fill:none;opacity:1;stroke:#e8ff00;stroke-linecap:butt;stroke-linejoin:miter;stroke-miterlimit:10;stroke-opacity:1;stroke-width:1;"/>
      </g>
    </defs>
    <use xlink:href="#6"/>
    <defs>
      <title>Path</title>
      <g id="8">
        <defs>
          <path id="9" d="M43.203,42.3624 C46.7275,42.3624,49.5848,45.2672,49.5848,48.8506 C49.5848,52.4339,46.7275,55.3387,43.203,55.3387 C39.6784,55.3387,36.8212,52.4339,36.8212,48.8506 C36.8212,45.2672,39.6784,42.3624,43.203,42.3624 z"/>
        </defs>
        <use xlink:href="#9" style="fill:#ff931e;fill-opacity:1;fill-rule:evenodd;opacity:1;stroke:none;"/>
        <use xlink:href="#9" style="fill:none;opacity:1;stroke:#ff931e;stroke-linecap:butt;stroke-linejoin:miter;stroke-miterlimit:10;stroke-opacity:1;stroke-width:1;"/>
      </g>
    </defs>
    <use xlink:href="#8"/>
    <defs>
      <title>Text</title>
      <g id="10">
        <defs>
          <path id="11" d="M76.9149,75.7102 C76.9149,75.7102,76.9149,53.8183,76.9149,53.8183 C76.9149,53.8183,83.4402,53.8183,83.4402,53.8183 C85.5084,53.8183,87.0936,54.2817,88.1957,55.2087 C89.2978,56.1356,89.8489,57.4817,89.8489,59.2469 C89.8489,62.1658,88.3972,64.2366,85.4939,65.4594 C85.4939,65.4594,92.6891,75.7102,92.6891,75.7102 C92.6891,75.7102,88.9313,75.7102,88.9313,75.7102 C88.9313,75.7102,82.7993,66.4505,82.7993,66.4505 C82.7993,66.4505,79.9445,66.4505,79.9445,66.4505 C79.9445,66.4505,79.9445,75.7102,79.9445,75.7102 z M79.9445,64.1282 C79.9445,64.1282,80.9349,64.1282,80.9349,64.1282 C84.7802,64.1282,86.7028,62.5947,86.7028,59.5279 C86.7028,57.2697,85.0909,56.1406,81.8671,56.1406 C81.8671,56.1406,79.9445,56.1406,79.9445,56.1406 z M100.001,76.2575 C98.5541,76.2575,96.7043,75.937,94.4515,75.296 C94.4515,75.296,94.4515,72.2193,94.4515,72.2193 C96.8791,73.3632,98.8745,73.9352,100.438,73.9352 C101.642,73.9352,102.61,73.6147,103.344,72.9737 C104.077,72.3327,104.443,71.4896,104.443,70.4443 C104.443,69.5864,104.203,68.8566,103.722,68.2551 C103.242,67.6536,102.356,66.983,101.064,66.2434 C101.064,66.2434,99.5785,65.3707,99.5785,65.3707 C97.7433,64.3057,96.4494,63.3023,95.6968,62.3605 C94.9443,61.4188,94.568,60.3217,94.568,59.0694 C94.568,57.3831,95.1701,55.9951,96.3741,54.9055 C97.5782,53.8158,99.1124,53.271,100.977,53.271 C102.637,53.271,104.39,53.552,106.235,54.1141 C106.235,54.1141,106.235,56.9541,106.235,56.9541 C103.963,56.0469,102.268,55.5933,101.152,55.5933 C100.093,55.5933,99.2192,55.8792,98.5298,56.4512 C97.8404,57.0232,97.4957,57.743,97.4957,58.6108 C97.4957,59.3405,97.7481,59.9865,98.253,60.5485 C98.758,61.1106,99.6804,61.7812,101.02,62.5602 C101.02,62.5602,102.564,63.4478,102.564,63.4478 C104.429,64.5226,105.73,65.5383,106.468,66.4949 C107.206,67.4514,107.575,68.6002,107.575,69.9414 C107.575,71.8446,106.883,73.3731,105.499,74.5268 C104.116,75.6806,102.283,76.2575,100.001,76.2575 z M122.082,81.553 C122.082,81.553,122.082,72.6927,122.082,72.6927 C120.917,74.9509,119.159,76.08,116.809,76.08 C114.906,76.08,113.408,75.3749,112.316,73.9648 C111.223,72.5546,110.677,70.6267,110.677,68.1811 C110.677,65.5087,111.296,63.359,112.534,61.7319 C113.772,60.1048,115.401,59.2912,117.421,59.2912 C119.295,59.2912,120.849,60.021,122.082,61.4804 C122.082,61.4804,122.082,59.6462,122.082,59.6462 C122.082,59.6462,124.966,59.6462,124.966,59.6462 C124.966,59.6462,124.966,81.553,124.966,81.553 z M122.082,63.4773 C120.596,62.1461,119.188,61.4804,117.858,61.4804 C115.11,61.4804,113.736,63.6154,113.736,67.8853 C113.736,71.6424,114.959,73.521,117.406,73.521 C118.999,73.521,120.557,72.6384,122.082,70.8733 z M130.704,75.7102 C130.704,75.7102,130.704,52.3539,130.704,52.3539 C130.704,52.3539,133.574,52.3539,133.574,52.3539 C133.574,52.3539,133.574,75.7102,133.574,75.7102 z"/>
        </defs>
        <use xlink:href="#11" style="fill:#000000;fill-opacity:1;fill-rule:nonzero;opacity:1;stroke:none;"/>
        <use xlink:href="#11" style="fill:#4c6f8d;fill-opacity:1;fill-rule:nonzero;opacity:1;stroke:none;"/>
      </g>
    </defs>
    <use xlink:href="#10"/>
    <defs>
      <title>Text</title>
      <g id="12">
        <defs>
          <path id="13" d="M130.664,50.3663 C130.664,50.3663,130.664,44.1329,130.664,44.1329 C130.664,44.1329,120.756,44.1329,120.756,44.1329 C120.756,44.1329,120.756,41.9162,120.756,41.9162 C120.756,41.9162,130.664,28.3484,130.664,28.3484 C130.664,28.3484,133.416,28.3484,133.416,28.3484 C133.416,28.3484,133.416,41.7377,133.416,41.7377 C133.416,41.7377,136.362,41.7377,136.362,41.7377 C136.362,41.7377,136.362,44.1329,136.362,44.1329 C136.362,44.1329,133.416,44.1329,133.416,44.1329 C133.416,44.1329,133.416,50.3663,133.416,50.3663 z M123.627,41.7377 C123.627,41.7377,130.857,41.7377,130.857,41.7377 C130.857,41.7377,130.857,31.9486,130.857,31.9486 z M141.301,50.3663 C141.301,50.3663,141.301,28.3484,141.301,28.3484 C141.301,28.3484,144.365,28.3484,144.365,28.3484 C144.365,28.3484,155.449,45.3528,155.449,45.3528 C155.449,45.3528,155.449,28.3484,155.449,28.3484 C155.449,28.3484,158.127,28.3484,158.127,28.3484 C158.127,28.3484,158.127,50.3663,158.127,50.3663 C158.127,50.3663,155.077,50.3663,155.077,50.3663 C155.077,50.3663,143.979,33.3619,143.979,33.3619 C143.979,33.3619,143.979,50.3663,143.979,50.3663 z M175.741,49.8456 C173.777,50.4407,172.096,50.7382,170.698,50.7382 C168.317,50.7382,166.376,49.9473,164.873,48.3653 C163.371,46.7834,162.619,44.7329,162.619,42.2137 C162.619,39.764,163.281,37.7556,164.605,36.1886 C165.93,34.6215,167.623,33.838,169.686,33.838 C171.64,33.838,173.15,34.5323,174.216,35.9208 C175.282,37.3093,175.815,39.283,175.815,41.8418 C175.815,41.8418,175.8,42.7493,175.8,42.7493 C175.8,42.7493,165.61,42.7493,165.61,42.7493 C166.036,46.5875,167.916,48.5067,171.248,48.5067 C172.468,48.5067,173.966,48.1794,175.741,47.5248 z M165.744,40.5475 C165.744,40.5475,172.87,40.5475,172.87,40.5475 C172.87,37.5424,171.749,36.0398,169.507,36.0398 C167.256,36.0398,166.001,37.5424,165.744,40.5475 z M185.723,50.7382 C184.236,50.7382,183.075,50.3117,182.242,49.4588 C181.409,48.6059,180.992,47.4207,180.992,45.9032 C180.992,45.9032,180.992,36.4117,180.992,36.4117 C180.992,36.4117,178.969,36.4117,178.969,36.4117 C178.969,36.4117,178.969,34.2099,178.969,34.2099 C178.969,34.2099,180.992,34.2099,180.992,34.2099 C180.992,34.2099,180.992,31.2792,180.992,31.2792 C180.992,31.2792,183.923,30.9965,183.923,30.9965 C183.923,30.9965,183.923,34.2099,183.923,34.2099 C183.923,34.2099,188.148,34.2099,188.148,34.2099 C188.148,34.2099,188.148,36.4117,188.148,36.4117 C188.148,36.4117,183.923,36.4117,183.923,36.4117 C183.923,36.4117,183.923,45.3676,183.923,45.3676 C183.923,47.4802,184.836,48.5364,186.661,48.5364 C187.047,48.5364,187.518,48.472,188.074,48.343 C188.074,48.343,188.074,50.3663,188.074,50.3663 C187.171,50.6142,186.388,50.7382,185.723,50.7382 z"/>
        </defs>
        <use xlink:href="#13" style="fill:#000000;fill-opacity:1;fill-rule:nonzero;opacity:1;stroke:none;"/>
        <use xlink:href="#13" style="fill:#5faff3;fill-opacity:1;fill-rule:nonzero;opacity:1;stroke:none;"/>
      </g>
    </defs>
    <use xlink:href="#12"/>
  </g>
</svg>
